<svg xmlns="http://www.w3.org/2000/svg" version="1.0" width="1024.000000pt" height="1024.000000pt" viewBox="-3 -3 1030 1030" preserveAspectRatio="xMidYMid meet" transform="matrix(1, 0, 0, 1, 0, 0)"><g id="deeditor_bgCarrier" stroke-width="0">
  <rect id="dee_c_e" x="-3" y="-3" width="1030" height="1030" rx="38.4" fill="#e5a980" strokewidth="0"/>
</g>

<g transform="translate(0.000000,1024.000000) scale(0.100000,-0.100000)" fill="#014d4e" stroke="none">
<path d="M4315 9391 c-316 -136 -597 -378 -830 -712 -165 -237 -324 -632 -380 -943 l-18 -98 -32 93 c-200 580 -549 1029 -985 1267 -76 41 -259 122 -277 122 -5 0 -8 -12 -7 -27 51 -479 238 -947 596 -1486 43 -65 78 -120 78 -122 0 -2 -44 25 -97 61 -185 124 -454 242 -682 298 -323 81 -657 79 -924 -5 -82 -26 -273 -120 -270 -133 1 -5 129 -58 285 -118 271 -104 421 -163 1003 -393 295 -117 508 -197 608 -230 l69 -22 -184 0 c-343 -1 -614 -63 -923 -213 -395 -192 -680 -471 -874 -857 -25 -51 -25 -53 -5 -53 43 0 447 97 649 155 88 26 180 53 205 60 25 7 162 54 305 105 849 301 1392 486 1401 478 2 -3 -22 -45 -53 -94 -413 -655 -732 -1326 -956 -2009 -209 -638 -330 -1203 -382 -1790 -9 -99 -18 -181 -20 -183 -4 -4 -17 -7 -225 -55 -161 -37 -367 -77 -625 -122 -82 -14 -163 -30 -180 -34 -18 -5 181 -9 498 -10 l527 -1 -7 -28 c-4 -15 -7 -220 -8 -457 0 -424 9 -621 40 -880 8 -66 15 -134 15 -152 l0 -32 -347 -3 c-394 -3 -386 -2 -450 -86 -77 -102 -43 -253 73 -319 l39 -23 4170 3 4170 2 41 29 c59 43 85 88 91 157 10 100 -45 195 -129 225 -24 9 -167 13 -515 13 l-483 1 0 775 0 775 683 1 c405 0 672 4 657 9 -14 5 -113 25 -220 45 -760 139 -1069 205 -1419 306 -616 176 -1260 418 -1701 639 -441 221 -803 469 -1117 764 l-80 75 -34 -36 c-64 -67 -294 -265 -406 -349 -158 -120 -344 -231 -713 -426 -73 -39 -186 -92 -460 -215 -68 -31 -481 -190 -650 -250 -217 -78 -421 -142 -615 -194 -65 -17 -126 -34 -133 -37 -16 -6 -15 14 14 393 68 900 239 1667 529 2380 161 396 306 697 564 1170 9 17 17 31 18 33 6 13 280 -191 415 -310 175 -153 458 -438 791 -798 307 -332 625 -660 638 -660 11 0 29 172 29 276 0 203 -46 378 -160 609 -81 165 -156 280 -262 404 -83 96 -240 231 -355 304 -80 51 -280 154 -356 182 -26 10 -46 19 -44 21 4 5 255 -31 367 -52 250 -46 436 -85 755 -159 277 -64 372 -83 542 -110 171 -27 439 -52 449 -42 11 11 -105 156 -206 257 -208 209 -461 363 -777 474 -309 109 -756 143 -1057 81 -59 -13 -91 -13 -75 -2 5 4 360 169 429 200 30 13 132 58 225 100 429 190 752 352 933 469 15 10 40 25 57 34 33 19 194 138 238 178 l29 25 -74 22 c-251 74 -496 101 -733 80 -453 -42 -871 -212 -1197 -488 -49 -40 -88 -72 -88 -70 0 2 39 85 86 183 214 445 417 974 538 1403 36 125 51 191 45 191 -2 0 -44 -18 -94 -39z m-1635 -7841 l0 -770 -199 0 -198 0 -11 53 c-6 28 -25 117 -41 197 -42 199 -87 485 -105 665 -17 164 -36 471 -36 565 l0 60 295 0 295 0 0 -770z m790 5 l0 -765 -290 0 -290 0 0 765 0 765 290 0 290 0 0 -765z m730 5 l0 -760 -260 0 -260 0 0 760 0 760 260 0 260 0 0 -760z m720 5 l0 -754 -251 -3 c-138 -2 -253 -1 -255 1 -2 2 -4 343 -4 758 l0 753 255 0 255 0 0 -755z m890 -5 l0 -761 -27 5 c-16 2 -128 5 -250 5 l-223 1 0 755 0 755 250 0 250 0 0 -760z m760 -6 c0 -695 -1 -766 -16 -760 -9 3 -132 6 -275 6 l-259 0 0 760 0 760 275 0 275 0 0 -766z m770 129 c0 -351 3 -695 7 -765 l6 -128 -280 0 -280 0 -6 187 c-4 104 -7 448 -7 766 l0 577 280 0 280 0 0 -637z m760 -133 l0 -770 -270 0 -270 0 0 754 c0 415 -3 761 -6 770 -6 14 22 16 270 16 l276 0 0 -770z" fill="#014d4e"/>
<path d="M7501 7735 c-1 -16 -10 -88 -21 -160 -75 -500 -183 -613 -665 -695 -65 -11 -137 -20 -162 -20 -73 0 -40 -17 48 -24 177 -15 394 -67 491 -118 170 -90 249 -260 302 -653 8 -55 14 -83 15 -63 2 79 33 277 56 365 59 225 147 323 353 394 74 25 298 68 400 76 97 7 90 18 -19 27 -212 18 -465 94 -550 164 -130 106 -181 251 -238 672 -5 36 -9 52 -10 35z" fill="#014d4e"/>
</g>
</svg>